<svg viewBox="0 0 20 20" x="0" y="0" fill="none" xmlns="http://www.w3.org/2000/svg"><g id="calendar-01" xmlns="http://www.w3.org/2000/svg">
<path id="Vector_6" d="M15,1.6667v1.6666M5,1.6667v1.6666" stroke="#2B2D42" stroke-width="1.25" stroke-linecap="round" stroke-linejoin="round"/>
<path id="Vector_7" d="M8.33,14.1667v-3.044c0,-0.1598 -0.11,-0.2894 -0.25,-0.2894h-0.58M11.36,14.1667l1.13,-3.0424c0.05,-0.1422 -0.06,-0.291 -0.22,-0.291h-1.44" stroke="#2B2D42" stroke-width="1.25" stroke-linecap="round"/>
<path id="Vector_8" d="M2.08,10.2027c0,-3.6311 0,-5.4466 1.05,-6.5747c1.04,-1.128 2.72,-1.128 6.08,-1.128h1.58c3.36,0 5.04,0 6.08,1.128c1.05,1.1281 1.05,2.9436 1.05,6.5747v0.428c0,3.631 0,5.4466 -1.05,6.5746c-1.04,1.128 -2.72,1.128 -6.08,1.128h-1.58c-3.36,0 -5.04,0 -6.08,-1.128c-1.05,-1.128 -1.05,-2.9436 -1.05,-6.5746z" stroke="#2B2D42" stroke-width="1.25" stroke-linecap="round" stroke-linejoin="round"/>
<path id="Vector_9" d="M5,6.6667h10" stroke="#2B2D42" stroke-width="1.25" stroke-linecap="round" stroke-linejoin="round"/>
</g></svg>