<svg viewBox="0 0 23.3333 23.3333" x="0" y="0" fill="none" xmlns="http://www.w3.org/2000/svg"><path id="Vector_40" d="M11.6667,-0.0035c-6.43,0 -11.67,5.24 -11.67,11.67c0,6.43 5.24,11.67 11.67,11.67c6.43,0 11.67,-5.24 11.67,-11.67c0,-6.43 -5.24,-11.67 -11.67,-11.67zM16.7367,15.8365c-0.16,0.28 -0.45,0.43 -0.75,0.43c-0.16,0 -0.31,-0.04 -0.45,-0.13l-3.61,-2.16c-0.9,-0.54 -1.57,-1.71 -1.57,-2.75v-4.79c0,-0.47 0.4,-0.87 0.88,-0.87c0.48,0 0.87,0.4 0.87,0.87v4.79c0,0.42 0.35,1.04 0.71,1.25l3.62,2.15c0.42,0.25 0.56,0.79 0.3,1.21z" fill="currentColor" xmlns="http://www.w3.org/2000/svg"/></svg>