<svg viewBox="0 0 20.7083 23.9167" x="0" y="0" fill="none" xmlns="http://www.w3.org/2000/svg"><path id="Vector_45" d="M20.42,7.8185c-1.23,-5.39 -5.93,-7.82 -10.06,-7.82c0,0 0,0 -0.01,0c-4.12,0 -8.83,2.42 -10.06,7.81c-1.36,6.02 2.32,11.11 5.66,14.32c1.24,1.19 2.82,1.79 4.41,1.79c1.59,0 3.17,-0.6 4.4,-1.79c3.33,-3.21 7.02,-8.29 5.66,-14.31zM10.36,13.6585c-2.03,0 -3.68,-1.64 -3.68,-3.67c0,-2.03 1.65,-3.68 3.68,-3.68c2.03,0 3.67,1.65 3.67,3.68c0,2.03 -1.64,3.67 -3.67,3.67z" fill="currentColor" xmlns="http://www.w3.org/2000/svg"/></svg>