<svg viewBox="0 0 16.6667 16.6667" x="0" y="0" fill="none" xmlns="http://www.w3.org/2000/svg"><path id="Vector_39" d="M16.6663,11.8235c0,3.03 -1.808,4.84 -4.841,4.84h-0.992c-0.458,0 -0.833,-0.37 -0.833,-0.83v-4.81c0,-0.22 0.183,-0.42 0.408,-0.42l1.467,-0.02c0.116,-0.01 0.216,-0.09 0.241,-0.21l0.292,-1.59c0.025,-0.15 -0.092,-0.29 -0.25,-0.29l-1.775,0.02c-0.233,0 -0.417,-0.18 -0.425,-0.41l-0.033,-2.04c0,-0.13 0.108,-0.25 0.25,-0.25l2,-0.03c0.141,0 0.25,-0.11 0.25,-0.25l-0.034,-2c0,-0.14 -0.108,-0.25 -0.25,-0.25l-2.25,0.03c-1.383,0.03 -2.483,1.16 -2.458,2.54l0.042,2.3c0.008,0.23 -0.175,0.41 -0.409,0.42l-1,0.02c-0.141,0 -0.25,0.11 -0.25,0.25l0.025,1.58c0,0.14 0.109,0.25 0.25,0.25l1,-0.02c0.234,0 0.417,0.19 0.425,0.41l0.075,4.75c0.009,0.47 -0.366,0.85 -0.833,0.85h-1.917c-3.033,0 -4.841,-1.81 -4.841,-4.85v-6.97c0,-3.04 1.808,-4.84 4.841,-4.84h6.984c3.033,0 4.841,1.8 4.841,4.84z" fill="currentColor" xmlns="http://www.w3.org/2000/svg"/></svg>