<svg viewBox="0 0 20 20" x="0" y="0" fill="none" xmlns="http://www.w3.org/2000/svg"><g id="gallery" xmlns="http://www.w3.org/2000/svg">
<path id="Vector_30" d="M0.58,17.01l-0.02,0.02c-0.27,-0.59 -0.44,-1.26 -0.51,-2c0.07,0.73 0.26,1.39 0.53,1.98z" fill="currentColor"/>
<path id="Vector_31" d="M7,8.38c1.314,0 2.38,-1.07 2.38,-2.38c0,-1.31 -1.066,-2.38 -2.38,-2.38c-1.314,0 -2.38,1.07 -2.38,2.38c0,1.31 1.066,2.38 2.38,2.38z" fill="currentColor"/>
<path id="Vector_32" d="M14.19,0h-8.38c-3.64,0 -5.81,2.17 -5.81,5.81v8.38c0,1.09 0.19,2.04 0.56,2.84c0.86,1.9 2.7,2.97 5.25,2.97h8.38c3.64,0 5.81,-2.17 5.81,-5.81v-2.29v-6.09c0,-3.64 -2.17,-5.81 -5.81,-5.81zM18.37,10.5c-0.78,-0.67 -2.04,-0.67 -2.82,0l-4.16,3.57c-0.78,0.67 -2.04,0.67 -2.82,0l-0.34,-0.28c-0.71,-0.62 -1.84,-0.68 -2.64,-0.14l-3.74,2.51c-0.22,-0.56 -0.35,-1.21 -0.35,-1.97v-8.38c0,-2.82 1.49,-4.31 4.31,-4.31h8.38c2.82,0 4.31,1.49 4.31,4.31v4.8z" fill="currentColor"/>
</g></svg>