<svg viewBox="0 0 20 20" x="0" y="0" fill="none" xmlns="http://www.w3.org/2000/svg"><g id="globe-02" xmlns="http://www.w3.org/2000/svg">
<path id="Vector_2" d="M10,18.3333c4.6,0 8.33,-3.7309 8.33,-8.3333c0,-4.6024 -3.73,-8.3333 -8.33,-8.3333c-4.6,0 -8.33,3.7309 -8.33,8.3333c0,4.6024 3.73,8.3333 8.33,8.3333z" stroke="white" stroke-width="1.25"/>
<path id="Vector_3" d="M6.67,10c0,5 3.33,8.3333 3.33,8.3333c0,0 3.33,-3.3333 3.33,-8.3333c0,-5 -3.33,-8.3333 -3.33,-8.3333c0,0 -3.33,3.3333 -3.33,8.3333z" stroke="white" stroke-width="1.25" stroke-linejoin="round"/>
<path id="Vector_4" d="M17.5,12.5h-15" stroke="white" stroke-width="1.25" stroke-linecap="round" stroke-linejoin="round"/>
<path id="Vector_5" d="M17.5,7.5h-15" stroke="white" stroke-width="1.25" stroke-linecap="round" stroke-linejoin="round"/>
</g></svg>