<svg viewBox="0 0 18 18" x="0" y="0" fill="none" xmlns="http://www.w3.org/2000/svg"><g id="Vector_38" xmlns="http://www.w3.org/2000/svg">
<path d="M9,1.63c2.386,0 2.711,0 3.687,0c0.867,0 1.301,0.21 1.626,0.32c0.434,0.22 0.759,0.33 1.085,0.65c0.325,0.33 0.542,0.65 0.65,1.09c0.109,0.32 0.217,0.76 0.325,1.62c0,0.98 0,1.2 0,3.69c0,2.49 0,2.71 0,3.69c0,0.86 -0.216,1.3 -0.325,1.62c-0.217,0.44 -0.325,0.76 -0.65,1.09c-0.326,0.32 -0.651,0.54 -1.085,0.65c-0.325,0.11 -0.759,0.22 -1.626,0.32c-0.976,0 -1.193,0 -3.687,0c-2.494,0 -2.7108,0 -3.6867,0c-0.8675,0 -1.3013,-0.21 -1.6266,-0.32c-0.4337,-0.22 -0.759,-0.33 -1.0843,-0.65c-0.3253,-0.33 -0.5422,-0.65 -0.6506,-1.09c-0.1084,-0.32 -0.2169,-0.76 -0.3253,-1.62c0,-0.98 0,-1.2 0,-3.69c0,-2.49 0,-2.71 0,-3.69c0,-0.86 0.2169,-1.3 0.3253,-1.62c0.2169,-0.44 0.3253,-0.76 0.6506,-1.09c0.3253,-0.32 0.6506,-0.54 1.0843,-0.65c0.3253,-0.11 0.7591,-0.22 1.6266,-0.32c0.9759,0 1.3012,0 3.6867,0zM9,0c-2.494,0 -2.7108,0 -3.6867,0c-0.9759,0 -1.6266,0.22 -2.1687,0.43c-0.5422,0.22 -1.0844,0.55 -1.6265,1.09c-0.5422,0.54 -0.7591,0.97 -1.0844,1.62c-0.2168,0.55 -0.3253,1.2 -0.4337,2.17c0,0.98 0,1.3 0,3.69c0,2.49 0,2.71 0,3.69c0,0.97 0.2169,1.62 0.4337,2.17c0.2169,0.54 0.5422,1.08 1.0844,1.62c0.5421,0.54 0.9759,0.76 1.6265,1.09c0.5421,0.21 1.1928,0.32 2.1687,0.43c0.9759,0 1.3012,0 3.6867,0c2.386,0 2.711,0 3.687,0c0.976,0 1.626,-0.22 2.168,-0.43c0.543,-0.22 1.085,-0.55 1.627,-1.09c0.542,-0.54 0.759,-0.97 1.084,-1.62c0.217,-0.55 0.326,-1.2 0.434,-2.17c0,-0.98 0,-1.3 0,-3.69c0,-2.39 0,-2.71 0,-3.69c0,-0.97 -0.217,-1.62 -0.434,-2.17c-0.217,-0.54 -0.542,-1.08 -1.084,-1.62c-0.542,-0.54 -0.976,-0.76 -1.627,-1.09c-0.542,-0.21 -1.192,-0.32 -2.168,-0.43c-0.976,0 -1.193,0 -3.687,0z" fill="currentColor"/>
<path d="M9,4.34c-2.6024,0 -4.6627,2.06 -4.6627,4.66c0,2.6 2.0603,4.66 4.6627,4.66c2.602,0 4.663,-2.06 4.663,-4.66c0,-2.6 -2.061,-4.66 -4.663,-4.66zM9,12.04c-1.6265,0 -3.0361,-1.31 -3.0361,-3.04c0,-1.63 1.3012,-3.04 3.0361,-3.04c1.6265,0 3.036,1.31 3.036,3.04c0,1.63 -1.4095,3.04 -3.036,3.04z" fill="currentColor"/>
<path d="M13.771,5.31c0.599,0 1.084,-0.48 1.084,-1.08c0,-0.6 -0.485,-1.09 -1.084,-1.09c-0.599,0 -1.084,0.49 -1.084,1.09c0,0.6 0.485,1.08 1.084,1.08z" fill="currentColor"/>
</g></svg>