<svg viewBox="0 0 23.3333 19.8333" x="0" y="0" fill="none" xmlns="http://www.w3.org/2000/svg"><path id="Vector_42" d="M17.4967,-0.0035h-11.66c-3.5,0 -5.84,1.75 -5.84,5.84v8.16c0,4.09 2.34,5.84 5.84,5.84h11.66c3.5,0 5.84,-1.75 5.84,-5.84v-8.16c0,-4.09 -2.34,-5.84 -5.84,-5.84zM18.0467,7.1065l-3.65,2.92c-0.77,0.61 -1.75,0.92 -2.73,0.92c-0.98,0 -1.97,-0.31 -2.73,-0.92l-3.65,-2.92c-0.38,-0.3 -0.43,-0.86 -0.14,-1.24c0.3,-0.37 0.85,-0.44 1.22,-0.14l3.65,2.92c0.89,0.71 2.4,0.71 3.28,0l3.65,-2.92c0.38,-0.3 0.94,-0.24 1.23,0.14c0.3,0.38 0.24,0.94 -0.13,1.24z" fill="currentColor" xmlns="http://www.w3.org/2000/svg"/></svg>