<svg viewBox="0 0 132 50" x="0" y="0" fill="none" xmlns="http://www.w3.org/2000/svg"><g id="Frame 1437254263" xmlns="http://www.w3.org/2000/svg">
<g id="vuesax/linear/arrow-square-left">
<g id="vuesax/linear/arrow-square-left_2">
<g id="arrow-square-left">
<path id="Vector_22" d="M18.75,45.83h12.5c10.42,0 14.58,-4.16 14.58,-14.58v-12.5c0,-10.42 -4.16,-14.58 -14.58,-14.58h-12.5c-10.42,0 -14.58,4.16 -14.58,14.58v12.5c0,10.42 4.16,14.58 14.58,14.58z" stroke="#292D32" stroke-width="1.5" stroke-linecap="round" stroke-linejoin="round"/>
<path id="Vector_23" d="M27.62,32.35l-7.33,-7.35l7.33,-7.35" stroke="#292D32" stroke-width="1.5" stroke-linecap="round" stroke-linejoin="round"/>
</g>
</g>
</g>
<g id="vuesax/linear/arrow-square-right">
<g id="vuesax/linear/arrow-square-right_2">
<g id="arrow-square-right">
<path id="Vector_24" d="M100.75,45.83h12.5c10.42,0 14.58,-4.16 14.58,-14.58v-12.5c0,-10.42 -4.16,-14.58 -14.58,-14.58h-12.5c-10.42,0 -14.58,4.16 -14.58,14.58v12.5c0,10.42 4.16,14.58 14.58,14.58z" stroke="#292D32" stroke-width="1.5" stroke-linecap="round" stroke-linejoin="round"/>
<path id="Vector_25" d="M104.38,32.35l7.33,-7.35l-7.33,-7.35" stroke="#292D32" stroke-width="1.5" stroke-linecap="round" stroke-linejoin="round"/>
</g>
</g>
</g>
</g></svg>