<svg viewBox="0 0 23.2983 23.3331" x="0" y="0" fill="none" xmlns="http://www.w3.org/2000/svg"><g id="call" xmlns="http://www.w3.org/2000/svg">
<path id="Vector_43" d="M10.5567,15.1065l-2.16,2.16c-0.45,0.46 -1.18,0.46 -1.64,0.01c-0.13,-0.13 -0.26,-0.24 -0.39,-0.37c-1.2,-1.21 -2.28,-2.49 -3.25,-3.82c-0.96,-1.33 -1.73,-2.66 -2.29,-3.97c-0.55,-1.33 -0.83,-2.61 -0.83,-3.82c0,-0.79 0.14,-1.55 0.42,-2.25c0.28,-0.71 0.73,-1.37 1.34,-1.95c0.75,-0.73 1.57,-1.1 2.43,-1.1c0.33,0 0.65,0.07 0.95,0.21c0.3,0.14 0.57,0.35 0.78,0.66l2.7,3.81c0.21,0.29 0.37,0.56 0.47,0.82c0.11,0.24 0.16,0.49 0.16,0.71c0,0.28 -0.08,0.56 -0.24,0.83c-0.15,0.27 -0.37,0.55 -0.65,0.83l-0.89,0.92c-0.13,0.13 -0.19,0.28 -0.19,0.47c0,0.09 0.01,0.17 0.04,0.26c0.03,0.1 0.07,0.17 0.09,0.24c0.21,0.38 0.57,0.88 1.09,1.49c0.52,0.61 1.08,1.23 1.69,1.84c0.11,0.12 0.24,0.24 0.36,0.35c0.47,0.46 0.48,1.21 0.01,1.67z" fill="currentColor"/>
<path id="Vector_44" d="M23.2967,19.0465c0,0.33 -0.06,0.67 -0.17,1c-0.04,0.09 -0.07,0.18 -0.12,0.28c-0.2,0.42 -0.46,0.81 -0.79,1.19c-0.58,0.63 -1.21,1.08 -1.92,1.37c-0.01,0 -0.02,0.01 -0.03,0.01c-0.69,0.28 -1.44,0.44 -2.24,0.44c-1.19,0 -2.46,-0.28 -3.81,-0.86c-1.34,-0.57 -2.68,-1.34 -4.01,-2.31c-0.45,-0.33 -0.91,-0.67 -1.34,-1.03l3.81,-3.82c0.33,0.25 0.62,0.43 0.87,0.56c0.06,0.02 0.13,0.06 0.21,0.09c0.09,0.04 0.18,0.05 0.29,0.05c0.2,0 0.35,-0.07 0.48,-0.2l0.88,-0.87c0.3,-0.29 0.58,-0.52 0.84,-0.66c0.27,-0.16 0.54,-0.24 0.83,-0.24c0.22,0 0.46,0.05 0.71,0.15c0.26,0.11 0.53,0.26 0.82,0.46l3.86,2.74c0.31,0.21 0.52,0.45 0.64,0.74c0.12,0.3 0.19,0.59 0.19,0.91z" fill="currentColor"/>
</g></svg>