<svg viewBox="0 0 154 28" x="0" y="0" fill="none" xmlns="http://www.w3.org/2000/svg"><g id="Frame 1686566946" xmlns="http://www.w3.org/2000/svg">
<path id="Star 24" d="M14,0l3.1432,9.674h10.1716l-8.229,5.978l3.1432,9.674l-8.229,-5.978l-8.229,5.978l3.1432,-9.674l-8.229,-5.978h10.1716z" fill="currentColor"/>
<path id="image" d="M45.5,0l3.143,9.674h10.172l-8.229,5.978l3.143,9.674l-8.229,-5.978l-8.229,5.978l3.143,-9.674l-8.229,-5.978h10.172z" fill="currentColor"/>
<path id="Star 25" d="M77,0l3.143,9.674h10.172l-8.229,5.978l3.143,9.674l-8.229,-5.978l-8.229,5.978l3.143,-9.674l-8.229,-5.978h10.172z" fill="currentColor"/>
<path id="Star 26" d="M108.5,0l3.143,9.674h10.172l-8.229,5.978l3.143,9.674l-8.229,-5.978l-8.229,5.978l3.143,-9.674l-8.229,-5.978h10.172z" fill="currentColor"/>
<path id="Star 27" d="M140,0l3.143,9.674h10.172l-8.229,5.978l3.143,9.674l-8.229,-5.978l-8.229,5.978l3.143,-9.674l-8.229,-5.978h10.172z" fill="currentColor"/>
</g></svg>