<svg version="1.1" id="Layer_1" xmlns="http://www.w3.org/2000/svg" xmlns:xlink="http://www.w3.org/1999/xlink" x="0px" y="0px"
	 width="100%" viewBox="0 0 272 96" enable-background="new 0 0 272 96" xml:space="preserve">
<path fill="#000000" opacity="1.000000" stroke="none" 
	d="
M174.000000,97.000000 
	C116.000015,97.000000 58.500027,97.000000 1.000031,97.000000 
	C1.000021,65.000023 1.000021,33.000042 1.000010,1.000048 
	C91.666626,1.000032 182.333252,1.000032 272.999908,1.000016 
	C272.999939,32.999950 272.999939,64.999901 272.999969,96.999924 
	C240.166672,97.000000 207.333328,97.000000 174.000000,97.000000 
M239.088089,48.002747 
	C234.074829,48.521061 228.703812,46.831287 223.957993,49.000214 
	C224.030701,49.622818 224.103394,50.245422 224.176102,50.868027 
	C230.771271,50.868027 237.366455,50.868027 244.895233,51.017628 
	C250.232605,51.017628 255.569962,51.017628 260.907349,51.017628 
	C260.910553,50.391090 260.913788,49.764553 260.916992,49.138016 
	C253.950897,48.798801 246.984787,48.459583 239.088089,48.002747 
M137.607880,24.704142 
	C139.080460,21.649796 141.002304,18.711651 141.835144,15.491827 
	C142.248367,13.894260 140.660248,11.779017 139.508484,8.605574 
	C138.480331,11.192710 138.011185,12.373193 137.639771,13.307796 
	C136.954239,10.223912 136.267563,7.134837 135.432465,3.378069 
	C133.356445,6.870452 132.495270,10.018198 130.450272,11.355134 
	C127.493889,13.287904 126.315437,14.009273 127.101212,17.263502 
	C127.326012,18.194481 127.814903,19.061693 128.084534,20.672508 
	C130.527634,25.487938 135.236877,27.052643 139.944061,28.729494 
	C138.962448,27.487234 137.980835,26.244972 137.607880,24.704142 
M144.443024,49.834373 
	C144.058899,51.934376 143.623840,54.026581 143.300934,56.135952 
	C142.560349,60.973732 145.307236,64.551781 150.021484,63.843037 
	C153.186005,63.367287 156.109116,61.285625 159.334366,59.835182 
	C165.438049,66.092545 169.640625,66.086723 174.723770,59.357727 
	C175.216385,63.002934 177.544220,65.077576 180.818848,63.818527 
	C183.654251,62.728371 185.896774,60.096214 188.401352,58.145634 
	C188.078781,57.874695 187.756210,57.603760 187.433655,57.332825 
	C185.694626,57.806152 183.955612,58.279480 182.216599,58.752808 
	C182.083420,56.971176 181.641876,55.146942 181.880905,53.416733 
	C182.387024,49.753281 183.248291,46.138893 184.019897,42.219963 
	C182.318176,42.116802 180.884705,42.029903 179.472290,41.944283 
	C178.467667,36.589798 174.901184,34.661167 169.402084,36.430317 
	C163.592499,38.299355 158.356689,45.768456 158.072464,52.592499 
	C157.877609,57.270798 155.546005,59.190742 149.894745,58.812840 
	C151.965179,47.326321 154.027573,35.884392 156.089951,24.442459 
	C155.622910,24.020992 155.155869,23.599524 154.688828,23.178057 
	C152.482956,24.853224 148.879715,26.163208 148.328888,28.270897 
	C146.559433,35.041737 145.917603,42.107269 144.443024,49.834373 
M100.510246,61.994358 
	C102.579147,62.665928 104.868469,64.245575 106.668297,63.808674 
	C109.829536,63.041290 112.691116,61.039505 114.606438,60.087463 
	C117.542412,61.459217 120.145027,63.226933 123.006744,63.911465 
	C132.565323,66.197899 141.236572,52.726742 139.372940,44.132412 
	C138.095871,38.243019 135.561493,36.018402 129.586319,36.005669 
	C120.939552,35.987244 114.556122,42.833771 114.001839,52.835827 
	C113.757408,57.246624 111.695724,59.358498 106.382149,58.919128 
	C107.636978,51.128632 108.840820,43.654675 110.044670,36.180714 
	C109.660095,35.887741 109.275520,35.594769 108.890945,35.301796 
	C106.878036,36.486950 103.407761,37.378376 103.099648,38.907124 
	C101.612930,46.283749 100.977684,53.831978 100.510246,61.994358 
M59.325123,36.869370 
	C59.993511,34.664291 59.991558,31.288731 61.445816,30.455873 
	C67.892151,26.764050 74.963501,24.427704 82.250198,27.916233 
	C84.188644,28.844269 86.599762,31.755833 86.394341,33.468983 
	C86.112350,35.820671 83.861969,38.279110 81.846275,39.963100 
	C80.434547,41.142513 78.005341,41.104031 76.030548,41.609467 
	C75.876419,42.045635 75.722290,42.481800 75.568153,42.917969 
	C76.869072,43.547379 78.161903,44.689949 79.472412,44.710602 
	C83.507187,44.774178 86.554588,46.469860 86.586517,50.443558 
	C86.609482,53.301323 85.525543,56.928291 83.588684,58.866150 
	C80.562180,61.894207 77.396622,59.480740 74.336662,56.709572 
	C73.697639,58.641495 73.002785,61.162521 73.833733,61.856422 
	C75.949615,63.623356 78.692978,65.506958 81.283432,65.657845 
	C86.773079,65.977600 93.046829,60.745266 93.890411,55.575172 
	C94.296211,53.088150 94.055237,50.223682 93.182289,47.873688 
	C92.242645,45.344128 90.220009,43.216858 88.972687,41.363895 
	C92.014015,40.135494 93.859764,36.170422 93.372940,31.247892 
	C92.835510,25.813648 88.403069,23.701164 84.009811,23.428238 
	C77.508598,23.024357 70.785477,23.165709 64.421051,24.417887 
	C57.738152,25.732727 52.970108,33.126556 54.133045,38.992130 
	C54.488262,40.783772 56.298939,42.525234 57.881241,43.698975 
	C58.397709,44.082092 61.267277,42.712536 61.363796,41.934158 
	C61.541313,40.502525 60.460953,38.914917 59.325123,36.869370 
M214.002518,56.130558 
	C213.036453,53.286098 212.539169,50.149635 210.992599,47.666763 
	C208.766174,44.092453 205.652023,41.031319 207.672302,35.701908 
	C205.109131,36.333664 202.201447,36.911499 201.160660,38.623985 
	C198.333038,43.276489 196.296082,48.409538 193.765839,53.730366 
	C193.920120,54.013241 195.262222,55.329754 195.025848,56.233345 
	C193.829498,60.806599 195.091003,63.191254 199.728394,63.994106 
	C206.175919,65.110336 211.239273,63.344128 214.002518,56.130558 
M71.930092,54.457222 
	C73.365814,46.086998 74.801537,37.716778 76.237259,29.346554 
	C75.682983,28.965479 75.128716,28.584404 74.574448,28.203329 
	C72.410812,29.870171 68.792587,31.208918 68.330078,33.259457 
	C66.075836,43.253670 64.664986,53.438114 62.934082,63.683239 
	C67.922249,64.552193 71.340431,63.948872 71.069542,58.065197 
	C71.027969,57.161972 71.560432,56.232323 71.930092,54.457222 
M154.186157,85.009186 
	C155.111832,84.797432 156.832382,84.621910 156.843933,84.368484 
	C157.016418,80.583954 156.963181,76.789131 156.963181,72.996742 
	C156.311569,72.936501 155.659958,72.876266 155.008362,72.816025 
	C154.616425,74.453972 154.224487,76.091919 153.760239,78.032089 
	C152.585068,77.929436 151.364380,77.822800 150.237930,77.724396 
	C150.046402,75.935608 149.892532,74.498489 149.728302,72.964622 
	C146.784470,74.391815 146.179871,80.849251 149.293427,85.898170 
	C149.526016,83.990273 149.758621,82.082375 150.012451,80.000313 
	C151.292206,80.107750 152.717468,80.227409 154.168701,80.349243 
	C154.168701,81.830322 154.168701,82.986603 154.186157,85.009186 
M191.984070,82.075409 
	C191.984070,79.120316 191.984070,76.165222 191.984070,73.210129 
	C191.491730,73.011841 190.999374,72.813553 190.507034,72.615265 
	C189.572678,74.341988 188.638321,76.068718 187.663651,77.869934 
	C185.845474,75.944588 184.328781,74.338478 182.583557,72.490387 
	C182.583557,76.893257 182.583557,80.431641 182.583557,83.970016 
	C183.022751,83.971367 183.461929,83.972717 183.901123,83.974068 
	C183.901123,81.779129 183.901123,79.584190 183.901123,76.902283 
	C186.463425,80.506134 188.498810,83.368866 190.534180,86.231598 
	C190.932098,86.048828 191.330002,85.866058 191.727905,85.683289 
	C191.813263,84.770462 191.898636,83.857643 191.984070,82.075409 
M48.768402,49.485825 
	C47.090096,48.999119 45.403614,48.073357 43.734943,48.104412 
	C37.663914,48.217403 31.601601,48.733704 25.530596,48.934818 
	C21.178932,49.078976 16.818644,48.962852 11.399164,48.962852 
	C12.821778,50.114780 13.307998,50.850769 13.786297,50.845657 
	C25.375772,50.721798 36.964401,50.518887 48.768402,49.485825 
M92.070724,85.367828 
	C93.963989,84.674225 94.148689,84.453766 92.464470,83.042709 
	C89.774612,80.789131 89.178566,78.749153 91.972649,76.167595 
	C92.766769,75.433876 93.152336,74.257950 93.725273,73.284821 
	C93.438683,73.027817 93.152100,72.770813 92.865517,72.513817 
	C91.274376,73.800400 89.683235,75.086983 88.455376,76.079819 
	C87.701027,75.078171 86.816902,73.904213 85.325279,71.923592 
	C85.325279,77.476181 85.325279,81.664200 85.325279,85.852226 
	C85.636192,85.948730 85.947105,86.045242 86.258026,86.141754 
	C86.957451,84.817207 87.656868,83.492653 88.688377,81.539223 
	C89.800308,82.923958 90.627419,83.953979 92.070724,85.367828 
M168.083054,80.707771 
	C169.755478,80.250450 171.427887,79.793129 173.628342,79.191414 
	C171.248108,78.073059 169.581177,77.289848 167.914261,76.506638 
	C170.769119,75.770317 173.367523,77.477196 174.223755,73.274643 
	C171.244659,73.274643 168.714874,73.274643 166.308594,73.274643 
	C166.308594,77.646889 166.308594,81.697441 166.308594,85.416901 
	C168.921188,85.416901 171.197433,85.416901 173.630219,85.416901 
	C172.444717,82.471291 167.485214,86.455200 168.083054,80.707771 
M132.198364,73.290871 
	C129.266342,75.286537 127.842377,78.405930 129.212616,81.368401 
	C130.153061,83.401627 132.971542,84.885567 135.273788,85.809715 
	C136.173691,86.170952 137.957886,84.329262 139.690552,83.277756 
	C136.185776,82.504997 133.949493,82.286850 131.999893,81.422226 
	C131.377792,81.146339 130.999634,78.331734 131.392426,78.085258 
	C133.603378,76.697937 136.083481,75.739563 139.314651,74.245056 
	C137.128143,73.823410 135.051697,73.422989 132.198364,73.290871 
M186.930176,26.618443 
	C186.774796,30.000568 186.619415,33.382694 186.442551,37.232372 
	C187.930923,36.382805 189.995316,35.916656 190.466187,34.786552 
	C191.429321,32.475010 191.735153,29.810486 191.783279,27.281273 
	C191.790573,26.897610 188.962234,26.459997 186.930176,26.618443 
M120.025055,75.798698 
	C122.322311,74.928627 122.551598,73.577438 120.092880,73.084335 
	C117.543236,72.572990 114.811333,72.970467 112.159149,72.970467 
	C112.088928,73.460594 112.018707,73.950722 111.948486,74.440849 
	C113.223839,75.160614 114.499184,75.880379 115.771248,76.595543 
	C115.937851,79.664574 116.104454,82.733604 116.271057,85.802635 
	C116.603714,85.791870 116.936378,85.781097 117.269035,85.770325 
	C117.905159,82.481926 118.541290,79.193520 120.025055,75.798698 
M109.115753,32.643410 
	C110.566505,31.483709 112.017265,30.324011 114.604958,28.255468 
	C111.219467,26.858297 109.292892,25.600821 107.303673,25.492371 
	C106.604744,25.454264 105.155304,28.244673 105.179626,29.724962 
	C105.195824,30.711151 107.213676,31.664455 109.115753,32.643410 
M205.664932,81.027412 
	C207.991837,81.027954 210.321335,81.096519 212.644882,81.008430 
	C214.656372,80.932190 216.661133,80.678177 218.668869,80.502747 
	C218.605637,80.143471 218.542419,79.784203 218.479202,79.424927 
	C212.378876,79.424927 206.278549,79.424927 200.178223,79.424927 
	C200.161667,79.873436 200.145096,80.321945 200.128525,80.770454 
	C201.657684,80.857651 203.186829,80.944839 205.664932,81.027412 
M102.018623,84.866150 
	C102.819336,84.837090 104.319031,84.832199 104.320984,84.775520 
	C104.450317,81.035141 104.494209,77.289581 104.389854,73.548828 
	C104.383560,73.323151 103.112038,73.132774 101.948502,72.780373 
	C101.948502,76.794037 101.948502,80.383347 102.018623,84.866150 
M58.172497,79.439522 
	C59.776192,79.962494 61.361710,80.857056 62.987095,80.936539 
	C67.312607,81.148064 71.655289,81.008430 75.991142,81.008430 
	C75.959579,80.296051 75.928009,79.583679 75.896439,78.871300 
	C70.234283,78.871300 64.572121,78.871300 58.172497,79.439522 
z"/>
<path fill="#F8F8F9" opacity="1.000000" stroke="none" 
	d="
M144.641907,49.446747 
	C145.917603,42.107269 146.559433,35.041737 148.328888,28.270897 
	C148.879715,26.163208 152.482956,24.853224 154.688828,23.178057 
	C155.155869,23.599524 155.622910,24.020992 156.089951,24.442459 
	C154.027573,35.884392 151.965179,47.326321 149.894745,58.812840 
	C155.546005,59.190742 157.877609,57.270798 158.072464,52.592499 
	C158.356689,45.768456 163.592499,38.299355 169.402084,36.430317 
	C174.901184,34.661167 178.467667,36.589798 179.472290,41.944283 
	C180.884705,42.029903 182.318176,42.116802 184.019897,42.219963 
	C183.248291,46.138893 182.387024,49.753281 181.880905,53.416733 
	C181.641876,55.146942 182.083420,56.971176 182.216599,58.752808 
	C183.955612,58.279480 185.694626,57.806152 187.433655,57.332825 
	C187.756210,57.603760 188.078781,57.874695 188.401352,58.145634 
	C185.896774,60.096214 183.654251,62.728371 180.818848,63.818527 
	C177.544220,65.077576 175.216385,63.002934 174.723770,59.357727 
	C169.640625,66.086723 165.438049,66.092545 159.334366,59.835182 
	C156.109116,61.285625 153.186005,63.367287 150.021484,63.843037 
	C145.307236,64.551781 142.560349,60.973732 143.300934,56.135952 
	C143.623840,54.026581 144.058899,51.934376 144.641907,49.446747 
M175.986679,46.601738 
	C176.468002,45.168762 176.949326,43.735790 177.399185,42.396484 
	C174.548523,39.299686 170.917618,38.596954 168.875992,42.910484 
	C167.088348,46.687405 166.629105,51.168583 166.076660,55.403049 
	C165.933304,56.501785 167.408310,58.420326 168.569336,58.881630 
	C169.445892,59.229904 171.650238,58.177483 172.143723,57.189255 
	C173.699448,54.073925 174.727646,50.695175 175.986679,46.601738 
z"/>
<path fill="#F7F7F7" opacity="1.000000" stroke="none" 
	d="
M100.275330,61.656849 
	C100.977684,53.831978 101.612930,46.283749 103.099648,38.907124 
	C103.407761,37.378376 106.878036,36.486950 108.890945,35.301796 
	C109.275520,35.594769 109.660095,35.887741 110.044670,36.180714 
	C108.840820,43.654675 107.636978,51.128632 106.382149,58.919128 
	C111.695724,59.358498 113.757408,57.246624 114.001839,52.835827 
	C114.556122,42.833771 120.939552,35.987244 129.586319,36.005669 
	C135.561493,36.018402 138.095871,38.243019 139.372940,44.132412 
	C141.236572,52.726742 132.565323,66.197899 123.006744,63.911465 
	C120.145027,63.226933 117.542412,61.459217 114.606438,60.087463 
	C112.691116,61.039505 109.829536,63.041290 106.668297,63.808674 
	C104.868469,64.245575 102.579147,62.665928 100.275330,61.656849 
M121.552170,53.501099 
	C122.501030,55.661823 123.449890,57.822552 124.398750,59.983276 
	C126.409813,58.172550 129.231735,56.721134 130.232498,54.462715 
	C131.568512,51.447777 131.757065,47.817055 131.895432,44.428627 
	C131.955444,42.958897 130.661301,41.433876 129.982224,39.933968 
	C128.121780,40.896820 125.401733,41.398499 124.584824,42.921192 
	C123.017715,45.842228 122.530716,49.342731 121.552170,53.501099 
z"/>
<path fill="#F9F9F9" opacity="1.000000" stroke="none" 
	d="
M59.614998,37.130844 
	C60.460953,38.914917 61.541313,40.502525 61.363796,41.934158 
	C61.267277,42.712536 58.397709,44.082092 57.881241,43.698975 
	C56.298939,42.525234 54.488262,40.783772 54.133045,38.992130 
	C52.970108,33.126556 57.738152,25.732727 64.421051,24.417887 
	C70.785477,23.165709 77.508598,23.024357 84.009811,23.428238 
	C88.403069,23.701164 92.835510,25.813648 93.372940,31.247892 
	C93.859764,36.170422 92.014015,40.135494 88.972687,41.363895 
	C90.220009,43.216858 92.242645,45.344128 93.182289,47.873688 
	C94.055237,50.223682 94.296211,53.088150 93.890411,55.575172 
	C93.046829,60.745266 86.773079,65.977600 81.283432,65.657845 
	C78.692978,65.506958 75.949615,63.623356 73.833733,61.856422 
	C73.002785,61.162521 73.697639,58.641495 74.336662,56.709572 
	C77.396622,59.480740 80.562180,61.894207 83.588684,58.866150 
	C85.525543,56.928291 86.609482,53.301323 86.586517,50.443558 
	C86.554588,46.469860 83.507187,44.774178 79.472412,44.710602 
	C78.161903,44.689949 76.869072,43.547379 75.568153,42.917969 
	C75.722290,42.481800 75.876419,42.045635 76.030548,41.609467 
	C78.005341,41.104031 80.434547,41.142513 81.846275,39.963100 
	C83.861969,38.279110 86.112350,35.820671 86.394341,33.468983 
	C86.599762,31.755833 84.188644,28.844269 82.250198,27.916233 
	C74.963501,24.427704 67.892151,26.764050 61.445816,30.455873 
	C59.991558,31.288731 59.993511,34.664291 59.614998,37.130844 
z"/>
<path fill="#F8F8F9" opacity="1.000000" stroke="none" 
	d="
M213.999161,56.539211 
	C211.239273,63.344128 206.175919,65.110336 199.728394,63.994106 
	C195.091003,63.191254 193.829498,60.806599 195.025848,56.233345 
	C195.262222,55.329754 193.920120,54.013241 193.765839,53.730366 
	C196.296082,48.409538 198.333038,43.276489 201.160660,38.623985 
	C202.201447,36.911499 205.109131,36.333664 207.672302,35.701908 
	C205.652023,41.031319 208.766174,44.092453 210.992599,47.666763 
	C212.539169,50.149635 213.036453,53.286098 213.999161,56.539211 
M205.078598,51.512474 
	C203.947891,49.665890 202.817184,47.819305 201.763153,46.097923 
	C199.618683,49.007328 197.620819,51.717850 195.630066,54.418724 
	C198.495819,56.545609 199.410645,62.819748 204.978165,59.370064 
	C207.901962,57.558434 207.309952,54.668530 205.078598,51.512474 
z"/>
<path fill="#F8F8F8" opacity="1.000000" stroke="none" 
	d="
M71.878746,54.886055 
	C71.560432,56.232323 71.027969,57.161972 71.069542,58.065197 
	C71.340431,63.948872 67.922249,64.552193 62.934082,63.683239 
	C64.664986,53.438114 66.075836,43.253670 68.330078,33.259457 
	C68.792587,31.208918 72.410812,29.870171 74.574448,28.203329 
	C75.128716,28.584404 75.682983,28.965479 76.237259,29.346554 
	C74.801537,37.716778 73.365814,46.086998 71.878746,54.886055 
z"/>
<path fill="#EE9A36" opacity="1.000000" stroke="none" 
	d="
M128.182693,19.958147 
	C127.814903,19.061693 127.326012,18.194481 127.101212,17.263502 
	C126.315437,14.009273 127.493889,13.287904 130.450272,11.355134 
	C132.495270,10.018198 133.356445,6.870452 135.432465,3.378069 
	C136.267563,7.134837 136.954239,10.223912 137.639771,13.307796 
	C138.011185,12.373193 138.480331,11.192710 139.508484,8.605574 
	C140.660248,11.779017 142.248367,13.894260 141.835144,15.491827 
	C141.002304,18.711651 139.080460,21.649796 137.060043,24.674057 
	C136.330322,24.077805 136.148453,23.511639 136.001282,22.582199 
	C136.693527,21.433365 137.351044,20.647800 137.617706,20.329218 
	C136.004044,17.920055 134.598190,15.821113 133.229782,13.778095 
	C132.596497,14.910747 131.740219,16.442240 130.657074,18.162008 
	C129.681030,18.886238 128.931870,19.422194 128.182693,19.958147 
z"/>
<path fill="#DDDEDE" opacity="1.000000" stroke="none" 
	d="
M154.177429,84.576035 
	C154.168701,82.986603 154.168701,81.830322 154.168701,80.349243 
	C152.717468,80.227409 151.292206,80.107750 150.012451,80.000313 
	C149.758621,82.082375 149.526016,83.990273 149.293427,85.898170 
	C146.179871,80.849251 146.784470,74.391815 149.728302,72.964622 
	C149.892532,74.498489 150.046402,75.935608 150.237930,77.724396 
	C151.364380,77.822800 152.585068,77.929436 153.760239,78.032089 
	C154.224487,76.091919 154.616425,74.453972 155.008362,72.816025 
	C155.659958,72.876266 156.311569,72.936501 156.963181,72.996742 
	C156.963181,76.789131 157.016418,80.583954 156.843933,84.368484 
	C156.832382,84.621910 155.111832,84.797432 154.177429,84.576035 
z"/>
<path fill="#F7F8F8" opacity="1.000000" stroke="none" 
	d="
M191.984039,82.510117 
	C191.898636,83.857643 191.813263,84.770462 191.727905,85.683289 
	C191.330002,85.866058 190.932098,86.048828 190.534180,86.231598 
	C188.498810,83.368866 186.463425,80.506134 183.901123,76.902283 
	C183.901123,79.584190 183.901123,81.779129 183.901123,83.974068 
	C183.461929,83.972717 183.022751,83.971367 182.583557,83.970016 
	C182.583557,80.431641 182.583557,76.893257 182.583557,72.490387 
	C184.328781,74.338478 185.845474,75.944588 187.663651,77.869934 
	C188.638321,76.068718 189.572678,74.341988 190.507034,72.615265 
	C190.999374,72.813553 191.491730,73.011841 191.984070,73.210129 
	C191.984070,76.165222 191.984070,79.120316 191.984039,82.510117 
z"/>
<path fill="#F2A52F" opacity="1.000000" stroke="none" 
	d="
M48.660793,49.908024 
	C36.964401,50.518887 25.375772,50.721798 13.786297,50.845657 
	C13.307998,50.850769 12.821778,50.114780 11.399164,48.962852 
	C16.818644,48.962852 21.178932,49.078976 25.530596,48.934818 
	C31.601601,48.733704 37.663914,48.217403 43.734943,48.104412 
	C45.403614,48.073357 47.090096,48.999119 48.660793,49.908024 
z"/>
<path fill="#F2F2F2" opacity="1.000000" stroke="none" 
	d="
M91.762619,85.175919 
	C90.627419,83.953979 89.800308,82.923958 88.688377,81.539223 
	C87.656868,83.492653 86.957451,84.817207 86.258026,86.141754 
	C85.947105,86.045242 85.636192,85.948730 85.325279,85.852226 
	C85.325279,81.664200 85.325279,77.476181 85.325279,71.923592 
	C86.816902,73.904213 87.701027,75.078171 88.455376,76.079819 
	C89.683235,75.086983 91.274376,73.800400 92.865517,72.513817 
	C93.152100,72.770813 93.438683,73.027817 93.725273,73.284821 
	C93.152336,74.257950 92.766769,75.433876 91.972649,76.167595 
	C89.178566,78.749153 89.774612,80.789131 92.464470,83.042709 
	C94.148689,84.453766 93.963989,84.674225 91.762619,85.175919 
z"/>
<path fill="#EAEAE9" opacity="1.000000" stroke="none" 
	d="
M168.054657,81.144508 
	C167.485214,86.455200 172.444717,82.471291 173.630219,85.416901 
	C171.197433,85.416901 168.921188,85.416901 166.308594,85.416901 
	C166.308594,81.697441 166.308594,77.646889 166.308594,73.274643 
	C168.714874,73.274643 171.244659,73.274643 174.223755,73.274643 
	C173.367523,77.477196 170.769119,75.770317 167.914261,76.506638 
	C169.581177,77.289848 171.248108,78.073059 173.628342,79.191414 
	C171.427887,79.793129 169.755478,80.250450 168.054657,81.144508 
z"/>
<path fill="#F7F8F8" opacity="1.000000" stroke="none" 
	d="
M132.586807,73.156723 
	C135.051697,73.422989 137.128143,73.823410 139.314651,74.245056 
	C136.083481,75.739563 133.603378,76.697937 131.392426,78.085258 
	C130.999634,78.331734 131.377792,81.146339 131.999893,81.422226 
	C133.949493,82.286850 136.185776,82.504997 139.690552,83.277756 
	C137.957886,84.329262 136.173691,86.170952 135.273788,85.809715 
	C132.971542,84.885567 130.153061,83.401627 129.212616,81.368401 
	C127.842377,78.405930 129.266342,75.286537 132.586807,73.156723 
z"/>
<path fill="#F9F9F9" opacity="1.000000" stroke="none" 
	d="
M187.187836,26.332890 
	C188.962234,26.459997 191.790573,26.897610 191.783279,27.281273 
	C191.735153,29.810486 191.429321,32.475010 190.466187,34.786552 
	C189.995316,35.916656 187.930923,36.382805 186.442551,37.232372 
	C186.619415,33.382694 186.774796,30.000568 187.187836,26.332890 
z"/>
<path fill="#F0A238" opacity="1.000000" stroke="none" 
	d="
M243.961639,50.868023 
	C237.366455,50.868027 230.771271,50.868027 224.176102,50.868027 
	C224.103394,50.245422 224.030701,49.622818 223.957993,49.000214 
	C228.703812,46.831287 234.074829,48.521061 239.767334,48.286095 
	C241.618271,49.335636 242.789963,50.101830 243.961639,50.868023 
z"/>
<path fill="#E19821" opacity="1.000000" stroke="none" 
	d="
M244.428436,50.942825 
	C242.789963,50.101830 241.618271,49.335636 240.232635,48.344902 
	C246.984787,48.459583 253.950897,48.798801 260.916992,49.138016 
	C260.913788,49.764553 260.910553,50.391090 260.907349,51.017628 
	C255.569962,51.017628 250.232605,51.017628 244.428436,50.942825 
z"/>
<path fill="#E2E3E3" opacity="1.000000" stroke="none" 
	d="
M119.601234,75.851913 
	C118.541290,79.193520 117.905159,82.481926 117.269035,85.770325 
	C116.936378,85.781097 116.603714,85.791870 116.271057,85.802635 
	C116.104454,82.733604 115.937851,79.664574 115.772888,76.597839 
	C114.499184,75.880379 113.223839,75.160614 111.948486,74.440849 
	C112.018707,73.950722 112.088928,73.460594 112.159149,72.970467 
	C114.811333,72.970467 117.543236,72.572990 120.092880,73.084335 
	C122.551598,73.577438 122.322311,74.928627 119.601234,75.851913 
z"/>
<path fill="#F0F0F1" opacity="1.000000" stroke="none" 
	d="
M108.725700,32.637943 
	C107.213676,31.664455 105.195824,30.711151 105.179626,29.724962 
	C105.155304,28.244673 106.604744,25.454264 107.303673,25.492371 
	C109.292892,25.600821 111.219467,26.858297 114.604958,28.255468 
	C112.017265,30.324011 110.566505,31.483709 108.725700,32.637943 
z"/>
<path fill="#F3A42E" opacity="1.000000" stroke="none" 
	d="
M205.190460,81.029724 
	C203.186829,80.944839 201.657684,80.857651 200.128525,80.770454 
	C200.145096,80.321945 200.161667,79.873436 200.178223,79.424927 
	C206.278549,79.424927 212.378876,79.424927 218.479202,79.424927 
	C218.542419,79.784203 218.605637,80.143471 218.668869,80.502747 
	C216.661133,80.678177 214.656372,80.932190 212.644882,81.008430 
	C210.321335,81.096519 207.991837,81.027954 205.190460,81.029724 
z"/>
<path fill="#D7D7D8" opacity="1.000000" stroke="none" 
	d="
M101.983566,84.419403 
	C101.948502,80.383347 101.948502,76.794037 101.948502,72.780373 
	C103.112038,73.132774 104.383560,73.323151 104.389854,73.548828 
	C104.494209,77.289581 104.450317,81.035141 104.320984,84.775520 
	C104.319031,84.832199 102.819336,84.837090 101.983566,84.419403 
z"/>
<path fill="#E78D25" opacity="1.000000" stroke="none" 
	d="
M135.966568,22.945471 
	C136.148453,23.511639 136.330322,24.077805 136.755707,24.823341 
	C137.980835,26.244972 138.962448,27.487234 139.944061,28.729494 
	C135.236877,27.052643 130.527634,25.487938 128.133606,20.315329 
	C128.931870,19.422194 129.681030,18.886238 130.719849,18.541430 
	C130.836288,22.284903 132.561798,23.603130 135.966568,22.945471 
z"/>
<path fill="#F8A939" opacity="1.000000" stroke="none" 
	d="
M58.541229,79.155411 
	C64.572121,78.871300 70.234283,78.871300 75.896439,78.871300 
	C75.928009,79.583679 75.959579,80.296051 75.991142,81.008430 
	C71.655289,81.008430 67.312607,81.148064 62.987095,80.936539 
	C61.361710,80.857056 59.776192,79.962494 58.541229,79.155411 
z"/>
<path fill="#000000" opacity="1.000000" stroke="none" 
	d="
M175.973343,47.010056 
	C174.727646,50.695175 173.699448,54.073925 172.143723,57.189255 
	C171.650238,58.177483 169.445892,59.229904 168.569336,58.881630 
	C167.408310,58.420326 165.933304,56.501785 166.076660,55.403049 
	C166.629105,51.168583 167.088348,46.687405 168.875992,42.910484 
	C170.917618,38.596954 174.548523,39.299686 177.399185,42.396484 
	C176.949326,43.735790 176.468002,45.168762 175.973343,47.010056 
z"/>
<path fill="#010101" opacity="1.000000" stroke="none" 
	d="
M121.573898,53.051964 
	C122.530716,49.342731 123.017715,45.842228 124.584824,42.921192 
	C125.401733,41.398499 128.121780,40.896820 129.982224,39.933968 
	C130.661301,41.433876 131.955444,42.958897 131.895432,44.428627 
	C131.757065,47.817055 131.568512,51.447777 130.232498,54.462715 
	C129.231735,56.721134 126.409813,58.172550 124.398750,59.983276 
	C123.449890,57.822552 122.501030,55.661823 121.573898,53.051964 
z"/>
<path fill="#000000" opacity="1.000000" stroke="none" 
	d="
M205.354050,51.780334 
	C207.309952,54.668530 207.901962,57.558434 204.978165,59.370064 
	C199.410645,62.819748 198.495819,56.545609 195.630066,54.418724 
	C197.620819,51.717850 199.618683,49.007328 201.763153,46.097923 
	C202.817184,47.819305 203.947891,49.665890 205.354050,51.780334 
z"/>
<path fill="#000000" opacity="1.000000" stroke="none" 
	d="
M136.001282,22.582199 
	C132.561798,23.603130 130.836288,22.284903 130.946716,18.353155 
	C131.740219,16.442240 132.596497,14.910747 133.229782,13.778095 
	C134.598190,15.821113 136.004044,17.920055 137.617706,20.329218 
	C137.351044,20.647800 136.693527,21.433365 136.001282,22.582199 
z"/>
</svg>